<svg preserveAspectRatio="none" overflow="visible" style="display: block;" width="20" height="20" viewBox="0 0 20 20" fill="none" xmlns="http://www.w3.org/2000/svg">
<g id="lucide/sticky-note">
<path id="Vector" d="M17.5 7.5C17.5006 7.23592 17.449 6.97434 17.348 6.73033C17.247 6.48632 17.0987 6.26473 16.9117 6.07833L13.9217 3.08833C13.7353 2.90127 13.5137 2.75297 13.2697 2.65199C13.0257 2.55101 12.7641 2.49935 12.5 2.5M17.5 7.5V15.8333C17.5 16.2754 17.3244 16.6993 17.0118 17.0118C16.6993 17.3244 16.2754 17.5 15.8333 17.5H4.16667C3.72464 17.5 3.30072 17.3244 2.98816 17.0118C2.67559 16.6993 2.5 16.2754 2.5 15.8333V4.16667C2.5 3.72464 2.67559 3.30072 2.98816 2.98816C3.30072 2.67559 3.72464 2.5 4.16667 2.5H12.5M17.5 7.5L13.3333 7.5C13.1123 7.5 12.9004 7.4122 12.7441 7.25592C12.5878 7.09964 12.5 6.88768 12.5 6.66667V2.5" stroke="black" stroke-width="1.3" stroke-linecap="round" stroke-linejoin="round"/>
</g>
</svg>
