<svg preserveAspectRatio="none" overflow="visible" style="display: block;" width="20" height="20" viewBox="0 0 20 20" fill="none" xmlns="http://www.w3.org/2000/svg">
<g id="Frame 2147240544">
<path id="Exclude" d="M9.88757 3.22441C10.4295 3.02955 11.033 3.12418 11.4901 3.47441L18.3104 8.69902C18.7286 9.01943 18.9735 9.51693 18.9735 10.0437V14.8728C18.9734 15.8079 18.2152 16.5662 17.2802 16.5662L2.81824 16.5652C1.88324 16.5652 1.12507 15.8078 1.12488 14.8728V7.56621C1.12497 6.85211 1.57304 6.21512 2.245 5.97343L9.88757 3.22441ZM11.0839 5.69121C11.0836 4.95727 10.3562 4.44454 9.66492 4.69121L3.12585 7.02519C2.78895 7.14542 2.56354 7.46439 2.56335 7.82206V14.3348C2.56345 15.0665 3.28692 15.5791 3.97742 15.3367L10.5175 13.0398C10.8566 12.9207 11.0839 12.6004 11.0839 12.241V5.69121Z" fill="black"/>
</g>
</svg>
